<svg xmlns="http://www.w3.org/2000/svg" xmlns:xlink="http://www.w3.org/1999/xlink" width="90" height="24" viewBox="0 0 90 24">
    <defs>
        <path id="a" d="M0 23.893h90V0H0z"/>
    </defs>
    <g fill="none" fill-rule="evenodd">
        <path fill="#221F1F" d="M32.683 10.601c2.367.638 3.205 1.239 3.205 2.896 0 1.876-1.292 2.897-3.661 2.897-1.42 0-2.75-.401-3.678-.893l.327-2.095c1.056.656 2.35 1.057 3.37 1.057.764 0 1.129-.256 1.129-.675 0-.455-.255-.655-1.511-.965-2.24-.583-3.189-1.184-3.189-2.858 0-1.658 1.239-2.77 3.425-2.77 1.202 0 2.367.236 3.298.655l-.348 2.095c-.965-.528-2.076-.837-2.931-.837-.656 0-.948.237-.948.582 0 .365.255.565 1.512.911zM42.773 7.14c-1.093 0-1.912.565-2.66 1.293V3.097l-2.75.437v12.714h2.75v-5.865c.492-.492.985-.801 1.513-.801.654 0 .91.437.91 1.074v5.592h2.769V9.909c0-1.731-.875-2.77-2.532-2.77M48.583 3.188c-.875 0-1.566.582-1.566 1.493 0 .893.69 1.475 1.566 1.475.893 0 1.567-.582 1.567-1.475 0-.91-.674-1.493-1.567-1.493"/>
        <mask id="b" fill="#fff">
            <use xlink:href="#a"/>
        </mask>
        <path fill="#221F1F" d="M47.2 16.248h2.768V7.322H47.2zM55.924 14.172c-.565 0-.875-.09-1.257-.274V10.51c.455-.545.929-.911 1.53-.911.784 0 1.348.638 1.348 2.131 0 1.731-.692 2.442-1.621 2.442m1.165-7.032c-1.147 0-1.948.675-2.569 1.366l-.181-1.184h-2.423v12.312l2.75-.418V16.03a5.76 5.76 0 0 0 1.876.308c1.968 0 3.753-1.4 3.753-4.79 0-3.024-1.366-4.408-3.206-4.408M65.832 14.172c-.566 0-.874-.09-1.257-.274V10.51c.455-.545.929-.911 1.53-.911.783 0 1.348.638 1.348 2.131 0 1.731-.693 2.442-1.621 2.442m1.166-7.032c-1.148 0-1.95.675-2.569 1.366l-.182-1.184h-2.422v12.312l2.75-.418V16.03c.51.163 1.074.308 1.876.308 1.968 0 3.752-1.4 3.752-4.79 0-3.024-1.365-4.408-3.205-4.408M73.172 3.188c-.875 0-1.566.582-1.566 1.493 0 .893.69 1.475 1.566 1.475.893 0 1.567-.582 1.567-1.475 0-.91-.674-1.493-1.567-1.493M71.788 16.248h2.77V7.322h-2.77zM87.34 7.322l-1.64 5.501-1.73-5.5h-4.186v-.838c0-.73.346-1.093 1.092-1.093.383 0 .71.036.983.073l-.327-2.113c-.31-.037-.673-.092-1.11-.092-2.059 0-3.39.802-3.39 2.951v1.111h-1.237v2.241h1.237v6.685h2.752V9.563h2.049l2.428 6.703-.108.273c-.292.62-.839.856-1.458.856-.527 0-.8-.055-1.092-.146l.346 2.205c.254.054.492.108 1.038.108 1.95 0 3.042-.802 3.844-3.133L90 7.322h-2.66z" mask="url(#b)"/>
        <path fill="#FCF173" d="M21.035 4.75a4.92 4.92 0 0 0-4.914-.29l-1.254-2.015L.528.528l2.244 2.855 2.093.292 1.783 2.58 2.848.324 1.875 2.488 2.054.281a4.92 4.92 0 0 0 2.184 3.624 4.933 4.933 0 0 0 6.825-1.398 4.93 4.93 0 0 0-1.399-6.823" mask="url(#b)"/>
        <path fill="#EF404A" d="M21.843 2.432a7.565 7.565 0 0 0-7.318-.033l.342.046L16.12 4.46a4.92 4.92 0 0 1 4.914.29 4.93 4.93 0 0 1 1.399 6.824 4.933 4.933 0 0 1-6.825 1.398 4.921 4.921 0 0 1-2.185-3.624l-2.053-.28-.593-.789c-.636 5.205.414 13.991.452 14.406l.065.68.615-.3c.461-.228 10.88-6.833 12.842-10.34 2.034-3.64.731-8.257-2.91-10.293" mask="url(#b)"/>
        <path fill="#221F1F" d="M24.29 12.468c-1.83 3.274-11.516 9.486-12.543 10.084l-.016-.138c-.58-5.333-.757-9.777-.54-12.852a.543.543 0 0 0 .109.028l1.659.227a5.44 5.44 0 0 0 5.354 4.495h.001a5.449 5.449 0 0 0 4.56-2.447 5.417 5.417 0 0 0 .79-4.098 5.413 5.413 0 0 0-2.337-3.456 5.42 5.42 0 0 0-2.998-.903c-.698 0-1.375.133-2.004.38l-.793-1.275a7.038 7.038 0 0 1 2.631-.514 7.03 7.03 0 0 1 3.423.894c3.384 1.893 4.598 6.188 2.705 9.575m-2.943-5.562a3.604 3.604 0 0 0-4.03-1.523l-.421-.676a4.368 4.368 0 0 1 3.848.484A4.368 4.368 0 0 1 22.63 7.98a4.367 4.367 0 0 1-.635 3.304 4.398 4.398 0 0 1-6.094 1.249 4.378 4.378 0 0 1-1.824-2.562l.83.113a3.593 3.593 0 0 0 2.629 2.31c.254.056.513.084.771.084A3.639 3.639 0 0 0 21.84 9.63a3.59 3.59 0 0 0-.492-2.724M9.555 6.055l-2.61-.298-.963-1.394 2.6.363a.528.528 0 0 0 .145-1.046l-5.671-.79-1.31-1.666L14.55 2.935l2.096 3.366c.137.222.416.31.655.207a2.55 2.55 0 0 1 3.158.969 2.54 2.54 0 0 1 .349 1.928 2.577 2.577 0 0 1-2.503 2.017 2.561 2.561 0 0 1-2.482-1.945.525.525 0 0 0-.44-.394l-3.724-.51-1.003-1.33 2.042.232a.53.53 0 0 0 .588-.526.528.528 0 0 0-.468-.523l-3.263-.371h-.001M22.1 1.972A8.084 8.084 0 0 0 18.163.943a8.114 8.114 0 0 0-3.732.912L.598.005a.527.527 0 1 0-.485.85l2.244 2.854a.528.528 0 0 0 .342.197l1.864.26 1.65 2.389a.53.53 0 0 0 .375.224l2.623.299 1.023 1.357c-.302 2.611-.332 6.933.448 14.093.011.107.02.177.022.208l.066.68a.526.526 0 0 0 .757.424l.618-.302c.51-.252 11.002-6.864 13.067-10.555 2.177-3.895.782-8.834-3.111-11.011" mask="url(#b)"/>
    </g>
</svg>
